<mxfile host="app.diagrams.net" agent="Mozilla/5.0 (Windows NT 10.0; Win64; x64) AppleWebKit/537.36 (KHTML, like Gecko) Chrome/140.0.0.0 Safari/537.36 Edg/140.0.0.0" version="28.2.5">
  <diagram name="Página-1" id="PMPH5-otzZukVzc5Kqfm">
    <mxGraphModel dx="1418" dy="820" grid="1" gridSize="10" guides="1" tooltips="1" connect="1" arrows="1" fold="1" page="1" pageScale="1" pageWidth="827" pageHeight="1169" background="none" math="0" shadow="1">
      <root>
        <mxCell id="0" />
        <mxCell id="1" parent="0" />
        <mxCell id="xISmvaxkcb4zdAvDgfoo-30" style="edgeStyle=orthogonalEdgeStyle;rounded=0;orthogonalLoop=1;jettySize=auto;html=1;entryX=1;entryY=0.5;entryDx=0;entryDy=0;" parent="1" edge="1">
          <mxGeometry relative="1" as="geometry">
            <mxPoint x="620" y="584.5" as="targetPoint" />
            <Array as="points">
              <mxPoint x="790" y="680" />
              <mxPoint x="790" y="540" />
              <mxPoint x="620" y="540" />
            </Array>
          </mxGeometry>
        </mxCell>
        <mxCell id="8HOjiMNmma0HNzOe-CF8-1" value="Fim" style="ellipse;whiteSpace=wrap;html=1;" vertex="1" parent="1">
          <mxGeometry x="350" y="630" width="120" height="80" as="geometry" />
        </mxCell>
        <mxCell id="8HOjiMNmma0HNzOe-CF8-5" value="" style="edgeStyle=orthogonalEdgeStyle;rounded=0;orthogonalLoop=1;jettySize=auto;html=1;" edge="1" parent="1" source="8HOjiMNmma0HNzOe-CF8-2" target="8HOjiMNmma0HNzOe-CF8-3">
          <mxGeometry relative="1" as="geometry" />
        </mxCell>
        <mxCell id="8HOjiMNmma0HNzOe-CF8-2" value="Ínicio" style="ellipse;whiteSpace=wrap;html=1;" vertex="1" parent="1">
          <mxGeometry x="350" y="140" width="120" height="80" as="geometry" />
        </mxCell>
        <mxCell id="8HOjiMNmma0HNzOe-CF8-21" style="edgeStyle=orthogonalEdgeStyle;rounded=0;orthogonalLoop=1;jettySize=auto;html=1;entryX=0.5;entryY=0;entryDx=0;entryDy=0;" edge="1" parent="1" source="8HOjiMNmma0HNzOe-CF8-3" target="8HOjiMNmma0HNzOe-CF8-9">
          <mxGeometry relative="1" as="geometry" />
        </mxCell>
        <mxCell id="8HOjiMNmma0HNzOe-CF8-3" value="Ler N" style="shape=parallelogram;perimeter=parallelogramPerimeter;whiteSpace=wrap;html=1;fixedSize=1;" vertex="1" parent="1">
          <mxGeometry x="370" y="260" width="120" height="60" as="geometry" />
        </mxCell>
        <mxCell id="8HOjiMNmma0HNzOe-CF8-7" value="" style="edgeStyle=orthogonalEdgeStyle;rounded=0;orthogonalLoop=1;jettySize=auto;html=1;" edge="1" parent="1" source="8HOjiMNmma0HNzOe-CF8-6" target="8HOjiMNmma0HNzOe-CF8-1">
          <mxGeometry relative="1" as="geometry" />
        </mxCell>
        <mxCell id="8HOjiMNmma0HNzOe-CF8-6" value="Escreve &quot;Digitou 0 - vai sair do programa&quot;" style="shape=parallelogram;perimeter=parallelogramPerimeter;whiteSpace=wrap;html=1;fixedSize=1;" vertex="1" parent="1">
          <mxGeometry y="640" width="210" height="60" as="geometry" />
        </mxCell>
        <mxCell id="8HOjiMNmma0HNzOe-CF8-10" value="" style="edgeStyle=orthogonalEdgeStyle;rounded=0;orthogonalLoop=1;jettySize=auto;html=1;" edge="1" parent="1" source="8HOjiMNmma0HNzOe-CF8-9" target="8HOjiMNmma0HNzOe-CF8-6">
          <mxGeometry relative="1" as="geometry" />
        </mxCell>
        <mxCell id="8HOjiMNmma0HNzOe-CF8-11" value="Sim" style="edgeLabel;html=1;align=center;verticalAlign=middle;resizable=0;points=[];" vertex="1" connectable="0" parent="8HOjiMNmma0HNzOe-CF8-10">
          <mxGeometry x="-0.32" y="1" relative="1" as="geometry">
            <mxPoint as="offset" />
          </mxGeometry>
        </mxCell>
        <mxCell id="8HOjiMNmma0HNzOe-CF8-13" value="" style="edgeStyle=orthogonalEdgeStyle;rounded=0;orthogonalLoop=1;jettySize=auto;html=1;" edge="1" parent="1" source="8HOjiMNmma0HNzOe-CF8-9" target="8HOjiMNmma0HNzOe-CF8-12">
          <mxGeometry relative="1" as="geometry" />
        </mxCell>
        <mxCell id="8HOjiMNmma0HNzOe-CF8-22" value="Não" style="edgeLabel;html=1;align=center;verticalAlign=middle;resizable=0;points=[];" vertex="1" connectable="0" parent="8HOjiMNmma0HNzOe-CF8-13">
          <mxGeometry x="0.2" y="-1" relative="1" as="geometry">
            <mxPoint as="offset" />
          </mxGeometry>
        </mxCell>
        <mxCell id="8HOjiMNmma0HNzOe-CF8-9" value="N == 0" style="rhombus;whiteSpace=wrap;html=1;" vertex="1" parent="1">
          <mxGeometry x="65" y="270" width="80" height="80" as="geometry" />
        </mxCell>
        <mxCell id="8HOjiMNmma0HNzOe-CF8-15" value="" style="edgeStyle=orthogonalEdgeStyle;rounded=0;orthogonalLoop=1;jettySize=auto;html=1;" edge="1" parent="1" source="8HOjiMNmma0HNzOe-CF8-12" target="8HOjiMNmma0HNzOe-CF8-14">
          <mxGeometry relative="1" as="geometry" />
        </mxCell>
        <mxCell id="8HOjiMNmma0HNzOe-CF8-18" value="Sim" style="edgeLabel;html=1;align=center;verticalAlign=middle;resizable=0;points=[];" vertex="1" connectable="0" parent="8HOjiMNmma0HNzOe-CF8-15">
          <mxGeometry x="-0.15" y="-1" relative="1" as="geometry">
            <mxPoint as="offset" />
          </mxGeometry>
        </mxCell>
        <mxCell id="8HOjiMNmma0HNzOe-CF8-17" value="" style="edgeStyle=orthogonalEdgeStyle;rounded=0;orthogonalLoop=1;jettySize=auto;html=1;" edge="1" parent="1" source="8HOjiMNmma0HNzOe-CF8-12" target="8HOjiMNmma0HNzOe-CF8-16">
          <mxGeometry relative="1" as="geometry" />
        </mxCell>
        <mxCell id="8HOjiMNmma0HNzOe-CF8-19" value="Não" style="edgeLabel;html=1;align=center;verticalAlign=middle;resizable=0;points=[];" vertex="1" connectable="0" parent="8HOjiMNmma0HNzOe-CF8-17">
          <mxGeometry x="0.1321" y="1" relative="1" as="geometry">
            <mxPoint as="offset" />
          </mxGeometry>
        </mxCell>
        <mxCell id="8HOjiMNmma0HNzOe-CF8-12" value="N MOD 2 == 0" style="rhombus;whiteSpace=wrap;html=1;" vertex="1" parent="1">
          <mxGeometry x="180" y="400" width="145" height="80" as="geometry" />
        </mxCell>
        <mxCell id="8HOjiMNmma0HNzOe-CF8-23" style="edgeStyle=orthogonalEdgeStyle;rounded=0;orthogonalLoop=1;jettySize=auto;html=1;entryX=1;entryY=0.5;entryDx=0;entryDy=0;" edge="1" parent="1" source="8HOjiMNmma0HNzOe-CF8-14" target="8HOjiMNmma0HNzOe-CF8-3">
          <mxGeometry relative="1" as="geometry">
            <Array as="points">
              <mxPoint x="253" y="620" />
              <mxPoint x="480" y="620" />
            </Array>
          </mxGeometry>
        </mxCell>
        <mxCell id="8HOjiMNmma0HNzOe-CF8-14" value="Escreve &quot;Positivo&quot;" style="shape=parallelogram;perimeter=parallelogramPerimeter;whiteSpace=wrap;html=1;fixedSize=1;" vertex="1" parent="1">
          <mxGeometry x="192.5" y="530" width="120" height="60" as="geometry" />
        </mxCell>
        <mxCell id="8HOjiMNmma0HNzOe-CF8-24" style="edgeStyle=orthogonalEdgeStyle;rounded=0;orthogonalLoop=1;jettySize=auto;html=1;" edge="1" parent="1" source="8HOjiMNmma0HNzOe-CF8-16" target="8HOjiMNmma0HNzOe-CF8-3">
          <mxGeometry relative="1" as="geometry">
            <Array as="points">
              <mxPoint x="510" y="560" />
              <mxPoint x="510" y="290" />
            </Array>
          </mxGeometry>
        </mxCell>
        <mxCell id="8HOjiMNmma0HNzOe-CF8-16" value="Escreve &quot;Negativo&quot;" style="shape=parallelogram;perimeter=parallelogramPerimeter;whiteSpace=wrap;html=1;fixedSize=1;" vertex="1" parent="1">
          <mxGeometry x="340" y="530" width="120" height="60" as="geometry" />
        </mxCell>
      </root>
    </mxGraphModel>
  </diagram>
</mxfile>
